<svg width="30" height="30" viewBox="0 0 30 30" fill="none" xmlns="http://www.w3.org/2000/svg">
<path d="M25.9779 16.6106L25.9627 16.5971C25.7237 16.3847 24.9914 15.6988 24.7444 15.3991C24.4545 15.0251 24.5214 14.7801 24.7386 14.4129C25.0132 13.9488 25.5632 13.2371 26.1454 12.4834C28.0099 10.0702 29.2136 8.39954 28.9658 7.21286L28.8323 6.57903L21.9466 6.5819C21.9225 6.6444 21.5631 8.16352 20.0468 10.7503C18.9473 12.6259 18.2261 13.2151 17.9721 13.3191L17.9328 13.3076C17.8502 13.2093 17.7058 12.9441 17.6464 12.2605C17.5844 11.5445 17.6393 10.6775 17.6925 9.83908C17.7547 8.85595 17.8083 8.00686 17.6799 7.39933L17.4708 6.40962C17.218 6.37076 16.2928 6.02722 13.7151 6.00111C11.4833 5.97911 10.8277 6.28935 10.5058 6.56278L9.44089 7.46718L10.7869 7.90303C11.2992 8.06894 11.4692 8.26035 11.6087 9.20915C11.6997 9.82757 11.7474 10.8668 11.6491 11.7947C11.5079 13.125 11.1693 13.3726 11.1518 13.3857C11.0935 13.3666 10.5989 13.1583 9.74039 11.4114C9.14481 10.1999 8.62271 8.76672 8.24118 7.72026C7.80454 6.52187 7.88315 6.77701 7.66162 6.21081L1 6.2106L1.43109 7.28379C3.2283 11.7622 4.87726 15.2595 7.08398 17.7714C9.52206 20.5467 12.5521 21.9998 16.6336 21.9998L17.4539 21.9998L17.4539 21.2103C17.4539 20.4723 17.5173 19.9408 17.6534 19.5378C17.7365 19.2924 17.847 19.0894 17.963 18.8767C18.1351 18.5633 18.3035 18.4291 18.3953 18.4091C18.4786 18.3908 18.6252 18.4496 18.7875 18.5662C19.2537 18.9007 19.6237 19.3403 20.0154 19.8057C20.5807 20.4774 21.1652 21.1717 22.0925 21.6262C22.5992 21.8746 23.528 22 24.0392 22C24.1745 22 28.994 21.9998 29 21.9998L28.9648 21.1778C28.9122 19.9488 27.9071 18.412 25.9779 16.6106ZM24.0711 20.4209L24.0578 20.4209C23.7054 20.4264 23.0327 20.3152 22.837 20.2194C22.2205 19.9172 21.7896 19.405 21.2903 18.8121C20.8522 18.2913 20.3991 17.7529 19.7683 17.3004C19.2581 16.9342 18.7948 16.8271 18.4269 16.8271C18.28 16.8271 18.1479 16.8442 18.0347 16.8689C17.6077 16.9614 16.9969 17.257 16.5114 18.1408C16.3744 18.3923 16.2191 18.677 16.0933 19.0496C15.9615 19.4394 15.8795 19.8725 15.8404 20.3995C12.7646 20.2313 10.3646 19.0603 8.33688 16.7521C6.45166 14.6059 4.96847 11.6041 3.39771 7.78893C3.51135 7.78893 6.35916 7.78934 6.52728 7.78934C6.57877 7.92852 6.63431 8.08107 6.69327 8.24267C7.10449 9.37157 7.66782 10.9174 8.33154 12.2357C9.28195 14.1234 10.1499 14.9653 11.1456 14.9653C11.6427 14.9653 12.0885 14.7626 12.4348 14.3787C12.9285 13.8317 13.2152 12.9287 13.3113 11.6181C13.3871 10.5846 13.3167 9.55516 13.2333 8.98793C13.1646 8.52124 13.0665 8.03132 12.8272 7.59238C13.8469 7.54818 15.2121 7.61808 16.0771 7.73753C16.1557 8.14954 16.1044 8.95936 16.0549 9.74287C15.935 11.6355 15.8113 13.5887 16.8523 14.5025C17.0354 14.6633 17.2296 14.7494 17.2351 14.7529L17.7649 14.9094C17.9694 14.8487 19.1535 15.4268 21.3957 11.661C22.1141 10.4544 22.7829 9.06401 23.1431 8.15591C23.9784 8.15427 26.824 8.15735 27.1584 8.15776C26.6848 9.16084 25.5624 10.5915 24.8288 11.5412C24.1892 12.3689 23.637 13.0837 23.3129 13.6314C22.7109 14.6489 22.8122 15.5557 23.4392 16.3557L23.449 16.368C23.7989 16.7967 24.663 17.5903 24.8423 17.7502C26.1407 18.9634 26.7664 19.8349 27.0641 20.4206L24.0711 20.4206L24.0711 20.4209Z" fill="white"/>
</svg>
