<svg width="30" height="30" viewBox="0 0 30 30" fill="none" xmlns="http://www.w3.org/2000/svg">
<path fill-rule="evenodd" clip-rule="evenodd" d="M15 11C12.7909 11 11 12.7909 11 15C11 17.2091 12.7909 19 15 19C17.2091 19 19 17.2091 19 15C19 12.7909 17.2091 11 15 11ZM9 15C9 11.6863 11.6863 9 15 9C18.3137 9 21 11.6863 21 15C21 18.3137 18.3137 21 15 21C11.6863 21 9 18.3137 9 15Z" fill="white"/>
<path fill-rule="evenodd" clip-rule="evenodd" d="M9.28 4.08C6.40812 4.08 4.08 6.40812 4.08 9.28V20.72C4.08 23.5919 6.40812 25.92 9.28 25.92H20.72C23.5919 25.92 25.92 23.5919 25.92 20.72V9.28C25.92 6.40812 23.5919 4.08 20.72 4.08H9.28ZM2 9.28C2 5.25937 5.25937 2 9.28 2H20.72C24.7406 2 28 5.25937 28 9.28V20.72C28 24.7406 24.7406 28 20.72 28H9.28C5.25937 28 2 24.7406 2 20.72V9.28Z" fill="white"/>
<path d="M21.5 10C22.3284 10 23 9.32843 23 8.5C23 7.67157 22.3284 7 21.5 7C20.6716 7 20 7.67157 20 8.5C20 9.32843 20.6716 10 21.5 10Z" fill="white"/>
</svg>
