<svg width="24" height="24" viewBox="0 0 24 24" fill="none" xmlns="http://www.w3.org/2000/svg">
<path fill-rule="evenodd" clip-rule="evenodd" d="M6.87352 3.14859C5.84453 3.281 4.89888 3.78348 4.21327 4.56224C3.52685 5.34193 3.14815 6.34508 3.1481 7.38388C3.1481 10.9559 4.56708 14.3816 7.09287 16.9073C9.61865 19.4331 13.0443 20.8521 16.6163 20.8521M6.87352 3.14859C6.8915 3.14669 6.90963 3.15054 6.9253 3.1596C6.94134 3.16888 6.95393 3.18312 6.96118 3.20017L9.06221 8.10258C9.06794 8.11596 9.07027 8.13055 9.06901 8.14504C9.06774 8.15954 9.0629 8.1735 9.05493 8.18568L7.31812 10.8395C7.31769 10.8401 7.31727 10.8408 7.31685 10.8414C7.16703 11.0684 7.07846 11.3302 7.05975 11.6016C7.04099 11.8737 7.09313 12.146 7.21108 12.3919L7.88552 12.0684L7.2136 12.3971C8.15463 14.321 9.7141 15.8734 11.6422 16.8056L11.6475 16.8081C11.8949 16.9254 12.1686 16.9762 12.4416 16.9555C12.7139 16.9349 12.9761 16.844 13.2027 16.6916C13.2033 16.6912 13.2039 16.6908 13.2045 16.6903L15.8182 14.9475C15.8304 14.9394 15.8444 14.9344 15.8591 14.9331C15.8737 14.9317 15.8884 14.9341 15.9019 14.9398L20.7978 17.0381L20.8 17.039C20.8171 17.0463 20.8313 17.0589 20.8406 17.0749C20.8499 17.091 20.8537 17.1096 20.8515 17.128L21.5941 17.2178L20.8521 17.123C20.7204 18.1534 20.2177 19.1005 19.438 19.7869C18.6583 20.4734 17.6551 20.8521 16.6163 20.8521M8.55936 11.7437C9.35276 13.3635 10.666 14.6708 12.2895 15.4569C12.3018 15.4624 12.3153 15.4648 12.3288 15.4638C12.3427 15.4627 12.3562 15.4581 12.3678 15.4502L12.3712 15.448L14.9882 13.7029C15.2075 13.5567 15.4598 13.4675 15.7222 13.4433C15.9846 13.4192 16.249 13.461 16.4912 13.5648L21.3849 15.6621C21.3852 15.6623 21.3856 15.6624 21.3859 15.6625C21.701 15.7966 21.9641 16.0294 22.1356 16.326C22.3073 16.6228 22.3778 16.9673 22.3366 17.3077L22.336 17.3127C22.1582 18.7041 21.4793 19.9829 20.4265 20.9098C19.3737 21.8367 18.0191 22.348 16.6164 22.3481C12.6476 22.3481 8.84138 20.7715 6.03504 17.9652C3.22869 15.1588 1.6521 11.3526 1.6521 7.38384C1.65217 5.98114 2.16353 4.62652 3.09042 3.5737C4.01731 2.52087 5.29617 1.842 6.68755 1.66419L6.69251 1.66355C7.03289 1.62236 7.37744 1.69292 7.67425 1.86458C7.97065 2.03599 8.2034 2.29897 8.33754 2.61397C8.33773 2.6144 8.33791 2.61483 8.33809 2.61527L10.4372 7.51328C10.5402 7.7534 10.5821 8.01524 10.5593 8.27549C10.5365 8.53574 10.4497 8.78632 10.3067 9.00491L8.56546 11.6654C8.55774 11.6771 8.55317 11.6905 8.55221 11.7045C8.55128 11.7179 8.55374 11.7314 8.55936 11.7437Z" fill="#388DAC"/>
</svg>
